<svg xmlns="http://www.w3.org/2000/svg" viewBox="0 0 307.18 343.76"><defs><style>.cls-1,.cls-2{fill:none;stroke:#1d1d1b;stroke-miterlimit:10;stroke-width:10px;}.cls-1{stroke-linecap:round;}</style></defs><g id="Capa_2" data-name="Capa 2"><g id="Capa_1-2" data-name="Capa 1"><line class="cls-1" x1="132.29" y1="293.11" x2="88.32" y2="216.52"/><path class="cls-1" d="M44.15,132.45v101.8a5,5,0,0,0,7.51,4.33l80.63-51.47"/><path class="cls-1" d="M159.44,124.24,91.19,84.84a6,6,0,0,0-6,0l-30.89,18a5,5,0,0,0,0,8.66l98.17,56.62a5,5,0,0,0,5,0l33.11-19.26a5,5,0,0,1,7.46,4.35V274.57a5,5,0,0,1-2.39,4.27l-34.21,20.78a5,5,0,0,1-7.5-4.35l0-77.71"/><path class="cls-1" d="M224.75,85.67,156.5,46.26a6,6,0,0,0-6,0l-30.89,18a5,5,0,0,0,0,8.66l98.17,56.62a5,5,0,0,0,5,0l33.11-19.27a5,5,0,0,1,7.46,4.35V236a5,5,0,0,1-2.39,4.27L226.7,261a5,5,0,0,1-7.5-4.35l0-77.71"/><path class="cls-2" d="M138.4,334.69,20.19,266.44A30.39,30.39,0,0,1,5,240.12V103.63A30.38,30.38,0,0,1,20.19,77.32L138.4,9.07a30.38,30.38,0,0,1,30.39,0L287,77.32a30.38,30.38,0,0,1,15.19,26.31V240.12A30.39,30.39,0,0,1,287,266.44l-118.2,68.25A30.43,30.43,0,0,1,138.4,334.69Z"/></g></g></svg>